<svg xmlns="http://www.w3.org/2000/svg" viewBox="0 0 100 100">
  <defs>
    <linearGradient id="shield-gradient" x1="0%" y1="0%" x2="100%" y2="100%">
      <stop offset="0%" style="stop-color:#14f0c6"/>
      <stop offset="100%" style="stop-color:#0d9488"/>
    </linearGradient>
  </defs>
  <path fill="url(#shield-gradient)" d="M50 5 L90 20 L90 45 C90 70 70 90 50 95 C30 90 10 70 10 45 L10 20 Z"/>
  <path fill="#0a0e17" d="M50 15 L80 27 L80 45 C80 65 65 82 50 86 C35 82 20 65 20 45 L20 27 Z"/>
  <path fill="url(#shield-gradient)" d="M45 40 L35 50 L45 60 L40 65 L25 50 L40 35 Z M55 40 L65 50 L55 60 L60 65 L75 50 L60 35 Z"/>
</svg>
